<mxfile host="app.diagrams.net" modified="2023-11-12T08:06:27.741Z" agent="Mozilla/5.0 (Windows NT 10.0; Win64; x64) AppleWebKit/537.36 (KHTML, like Gecko) Chrome/118.0.0.0 Safari/537.36" etag="1zTA_j3-EyW6w6-X-6OJ" version="21.7.4" type="github">
  <diagram name="Page-1" id="O4bA_PKtf74ZYO6tTYE0">
    <mxGraphModel dx="1434" dy="800" grid="1" gridSize="10" guides="1" tooltips="1" connect="1" arrows="1" fold="1" page="1" pageScale="1" pageWidth="827" pageHeight="1169" math="0" shadow="0">
      <root>
        <mxCell id="0" />
        <mxCell id="1" parent="0" />
        <mxCell id="PwrwlJO5Dlzja9ghcnM9-15" style="edgeStyle=orthogonalEdgeStyle;rounded=0;orthogonalLoop=1;jettySize=auto;html=1;exitX=0.5;exitY=0;exitDx=0;exitDy=0;exitPerimeter=0;" edge="1" parent="1" source="PwrwlJO5Dlzja9ghcnM9-1" target="PwrwlJO5Dlzja9ghcnM9-2">
          <mxGeometry relative="1" as="geometry" />
        </mxCell>
        <mxCell id="PwrwlJO5Dlzja9ghcnM9-26" style="edgeStyle=orthogonalEdgeStyle;rounded=0;orthogonalLoop=1;jettySize=auto;html=1;exitX=0.5;exitY=1;exitDx=0;exitDy=0;exitPerimeter=0;entryX=0.041;entryY=0;entryDx=0;entryDy=0;entryPerimeter=0;" edge="1" parent="1" source="PwrwlJO5Dlzja9ghcnM9-1" target="PwrwlJO5Dlzja9ghcnM9-13">
          <mxGeometry relative="1" as="geometry" />
        </mxCell>
        <mxCell id="PwrwlJO5Dlzja9ghcnM9-1" value="real-time&lt;br&gt;db&lt;br&gt;" style="shape=cylinder3;whiteSpace=wrap;html=1;boundedLbl=1;backgroundOutline=1;size=15;" vertex="1" parent="1">
          <mxGeometry x="64" y="230" width="60" height="80" as="geometry" />
        </mxCell>
        <mxCell id="PwrwlJO5Dlzja9ghcnM9-24" style="edgeStyle=orthogonalEdgeStyle;rounded=0;orthogonalLoop=1;jettySize=auto;html=1;exitX=0.5;exitY=0;exitDx=0;exitDy=0;" edge="1" parent="1" source="PwrwlJO5Dlzja9ghcnM9-2" target="PwrwlJO5Dlzja9ghcnM9-7">
          <mxGeometry relative="1" as="geometry" />
        </mxCell>
        <mxCell id="PwrwlJO5Dlzja9ghcnM9-2" value="Prepaid-billing" style="rounded=1;whiteSpace=wrap;html=1;" vertex="1" parent="1">
          <mxGeometry x="34" y="130" width="120" height="60" as="geometry" />
        </mxCell>
        <mxCell id="PwrwlJO5Dlzja9ghcnM9-23" style="edgeStyle=orthogonalEdgeStyle;rounded=0;orthogonalLoop=1;jettySize=auto;html=1;exitX=0.5;exitY=0;exitDx=0;exitDy=0;" edge="1" parent="1" source="PwrwlJO5Dlzja9ghcnM9-3" target="PwrwlJO5Dlzja9ghcnM9-7">
          <mxGeometry relative="1" as="geometry">
            <mxPoint x="294" y="100" as="targetPoint" />
          </mxGeometry>
        </mxCell>
        <mxCell id="PwrwlJO5Dlzja9ghcnM9-3" value="VoiceMail" style="rounded=1;whiteSpace=wrap;html=1;" vertex="1" parent="1">
          <mxGeometry x="194" y="130" width="120" height="60" as="geometry" />
        </mxCell>
        <mxCell id="PwrwlJO5Dlzja9ghcnM9-20" style="edgeStyle=orthogonalEdgeStyle;rounded=0;orthogonalLoop=1;jettySize=auto;html=1;exitX=0.5;exitY=0;exitDx=0;exitDy=0;entryX=0.5;entryY=1;entryDx=0;entryDy=0;" edge="1" parent="1" source="PwrwlJO5Dlzja9ghcnM9-4" target="PwrwlJO5Dlzja9ghcnM9-7">
          <mxGeometry relative="1" as="geometry" />
        </mxCell>
        <mxCell id="PwrwlJO5Dlzja9ghcnM9-4" value="VirtualOffice" style="rounded=1;whiteSpace=wrap;html=1;" vertex="1" parent="1">
          <mxGeometry x="354" y="130" width="120" height="60" as="geometry" />
        </mxCell>
        <mxCell id="PwrwlJO5Dlzja9ghcnM9-21" style="edgeStyle=orthogonalEdgeStyle;rounded=0;orthogonalLoop=1;jettySize=auto;html=1;exitX=0.5;exitY=0;exitDx=0;exitDy=0;" edge="1" parent="1" source="PwrwlJO5Dlzja9ghcnM9-5" target="PwrwlJO5Dlzja9ghcnM9-7">
          <mxGeometry relative="1" as="geometry" />
        </mxCell>
        <mxCell id="PwrwlJO5Dlzja9ghcnM9-5" value="PersonalOffice" style="rounded=1;whiteSpace=wrap;html=1;" vertex="1" parent="1">
          <mxGeometry x="514" y="130" width="120" height="60" as="geometry" />
        </mxCell>
        <mxCell id="PwrwlJO5Dlzja9ghcnM9-22" style="edgeStyle=orthogonalEdgeStyle;rounded=0;orthogonalLoop=1;jettySize=auto;html=1;exitX=0.5;exitY=0;exitDx=0;exitDy=0;" edge="1" parent="1" source="PwrwlJO5Dlzja9ghcnM9-6" target="PwrwlJO5Dlzja9ghcnM9-7">
          <mxGeometry relative="1" as="geometry" />
        </mxCell>
        <mxCell id="PwrwlJO5Dlzja9ghcnM9-6" value="...&lt;br&gt;" style="rounded=1;whiteSpace=wrap;html=1;" vertex="1" parent="1">
          <mxGeometry x="674" y="130" width="120" height="60" as="geometry" />
        </mxCell>
        <mxCell id="PwrwlJO5Dlzja9ghcnM9-7" value="Commutator" style="rounded=0;whiteSpace=wrap;html=1;" vertex="1" parent="1">
          <mxGeometry x="354" y="10" width="120" height="60" as="geometry" />
        </mxCell>
        <mxCell id="PwrwlJO5Dlzja9ghcnM9-16" style="edgeStyle=orthogonalEdgeStyle;rounded=0;orthogonalLoop=1;jettySize=auto;html=1;exitX=0.5;exitY=0;exitDx=0;exitDy=0;exitPerimeter=0;entryX=0.5;entryY=1;entryDx=0;entryDy=0;" edge="1" parent="1" source="PwrwlJO5Dlzja9ghcnM9-8" target="PwrwlJO5Dlzja9ghcnM9-3">
          <mxGeometry relative="1" as="geometry" />
        </mxCell>
        <mxCell id="PwrwlJO5Dlzja9ghcnM9-27" style="edgeStyle=orthogonalEdgeStyle;rounded=0;orthogonalLoop=1;jettySize=auto;html=1;exitX=0.5;exitY=1;exitDx=0;exitDy=0;exitPerimeter=0;entryX=0.272;entryY=-0.1;entryDx=0;entryDy=0;entryPerimeter=0;" edge="1" parent="1" source="PwrwlJO5Dlzja9ghcnM9-8" target="PwrwlJO5Dlzja9ghcnM9-13">
          <mxGeometry relative="1" as="geometry" />
        </mxCell>
        <mxCell id="PwrwlJO5Dlzja9ghcnM9-8" value="real-time&lt;br&gt;db" style="shape=cylinder3;whiteSpace=wrap;html=1;boundedLbl=1;backgroundOutline=1;size=15;" vertex="1" parent="1">
          <mxGeometry x="224" y="230" width="60" height="80" as="geometry" />
        </mxCell>
        <mxCell id="PwrwlJO5Dlzja9ghcnM9-17" style="edgeStyle=orthogonalEdgeStyle;rounded=0;orthogonalLoop=1;jettySize=auto;html=1;exitX=0.5;exitY=0;exitDx=0;exitDy=0;exitPerimeter=0;entryX=0.5;entryY=1;entryDx=0;entryDy=0;" edge="1" parent="1" source="PwrwlJO5Dlzja9ghcnM9-9" target="PwrwlJO5Dlzja9ghcnM9-4">
          <mxGeometry relative="1" as="geometry" />
        </mxCell>
        <mxCell id="PwrwlJO5Dlzja9ghcnM9-28" style="edgeStyle=orthogonalEdgeStyle;rounded=0;orthogonalLoop=1;jettySize=auto;html=1;exitX=0.5;exitY=1;exitDx=0;exitDy=0;exitPerimeter=0;entryX=0.5;entryY=0;entryDx=0;entryDy=0;" edge="1" parent="1" source="PwrwlJO5Dlzja9ghcnM9-9" target="PwrwlJO5Dlzja9ghcnM9-13">
          <mxGeometry relative="1" as="geometry" />
        </mxCell>
        <mxCell id="PwrwlJO5Dlzja9ghcnM9-9" value="" style="shape=cylinder3;whiteSpace=wrap;html=1;boundedLbl=1;backgroundOutline=1;size=15;" vertex="1" parent="1">
          <mxGeometry x="384" y="230" width="60" height="80" as="geometry" />
        </mxCell>
        <mxCell id="PwrwlJO5Dlzja9ghcnM9-18" style="edgeStyle=orthogonalEdgeStyle;rounded=0;orthogonalLoop=1;jettySize=auto;html=1;exitX=0.5;exitY=0;exitDx=0;exitDy=0;exitPerimeter=0;" edge="1" parent="1" source="PwrwlJO5Dlzja9ghcnM9-10" target="PwrwlJO5Dlzja9ghcnM9-5">
          <mxGeometry relative="1" as="geometry" />
        </mxCell>
        <mxCell id="PwrwlJO5Dlzja9ghcnM9-29" style="edgeStyle=orthogonalEdgeStyle;rounded=0;orthogonalLoop=1;jettySize=auto;html=1;exitX=0.5;exitY=1;exitDx=0;exitDy=0;exitPerimeter=0;entryX=0.714;entryY=-0.05;entryDx=0;entryDy=0;entryPerimeter=0;" edge="1" parent="1" source="PwrwlJO5Dlzja9ghcnM9-10" target="PwrwlJO5Dlzja9ghcnM9-13">
          <mxGeometry relative="1" as="geometry" />
        </mxCell>
        <mxCell id="PwrwlJO5Dlzja9ghcnM9-10" value="" style="shape=cylinder3;whiteSpace=wrap;html=1;boundedLbl=1;backgroundOutline=1;size=15;" vertex="1" parent="1">
          <mxGeometry x="544" y="230" width="60" height="80" as="geometry" />
        </mxCell>
        <mxCell id="PwrwlJO5Dlzja9ghcnM9-19" style="edgeStyle=orthogonalEdgeStyle;rounded=0;orthogonalLoop=1;jettySize=auto;html=1;exitX=0.5;exitY=0;exitDx=0;exitDy=0;exitPerimeter=0;" edge="1" parent="1" source="PwrwlJO5Dlzja9ghcnM9-11" target="PwrwlJO5Dlzja9ghcnM9-6">
          <mxGeometry relative="1" as="geometry" />
        </mxCell>
        <mxCell id="PwrwlJO5Dlzja9ghcnM9-30" style="edgeStyle=orthogonalEdgeStyle;rounded=0;orthogonalLoop=1;jettySize=auto;html=1;exitX=0.5;exitY=1;exitDx=0;exitDy=0;exitPerimeter=0;entryX=0.944;entryY=-0.05;entryDx=0;entryDy=0;entryPerimeter=0;" edge="1" parent="1" source="PwrwlJO5Dlzja9ghcnM9-11" target="PwrwlJO5Dlzja9ghcnM9-13">
          <mxGeometry relative="1" as="geometry" />
        </mxCell>
        <mxCell id="PwrwlJO5Dlzja9ghcnM9-11" value="" style="shape=cylinder3;whiteSpace=wrap;html=1;boundedLbl=1;backgroundOutline=1;size=15;" vertex="1" parent="1">
          <mxGeometry x="704" y="230" width="60" height="80" as="geometry" />
        </mxCell>
        <mxCell id="PwrwlJO5Dlzja9ghcnM9-25" style="edgeStyle=orthogonalEdgeStyle;rounded=0;orthogonalLoop=1;jettySize=auto;html=1;exitX=0.5;exitY=0;exitDx=0;exitDy=0;exitPerimeter=0;entryX=0.521;entryY=1;entryDx=0;entryDy=0;entryPerimeter=0;" edge="1" parent="1" source="PwrwlJO5Dlzja9ghcnM9-12" target="PwrwlJO5Dlzja9ghcnM9-13">
          <mxGeometry relative="1" as="geometry">
            <Array as="points">
              <mxPoint x="430" y="415" />
              <mxPoint x="434" y="415" />
            </Array>
          </mxGeometry>
        </mxCell>
        <mxCell id="PwrwlJO5Dlzja9ghcnM9-12" value="BIG DB" style="shape=cylinder3;whiteSpace=wrap;html=1;boundedLbl=1;backgroundOutline=1;size=15;" vertex="1" parent="1">
          <mxGeometry x="290" y="440" width="280" height="90" as="geometry" />
        </mxCell>
        <mxCell id="PwrwlJO5Dlzja9ghcnM9-13" value="Synchronizer app" style="rounded=0;whiteSpace=wrap;html=1;" vertex="1" parent="1">
          <mxGeometry x="64" y="350" width="710" height="40" as="geometry" />
        </mxCell>
        <mxCell id="PwrwlJO5Dlzja9ghcnM9-32" style="edgeStyle=orthogonalEdgeStyle;rounded=0;orthogonalLoop=1;jettySize=auto;html=1;exitX=0.5;exitY=0;exitDx=0;exitDy=0;" edge="1" parent="1" source="PwrwlJO5Dlzja9ghcnM9-31" target="PwrwlJO5Dlzja9ghcnM9-12">
          <mxGeometry relative="1" as="geometry" />
        </mxCell>
        <mxCell id="PwrwlJO5Dlzja9ghcnM9-31" value="REST api&lt;br&gt;SOAP&lt;br&gt;" style="rounded=0;whiteSpace=wrap;html=1;" vertex="1" parent="1">
          <mxGeometry x="370" y="560" width="120" height="60" as="geometry" />
        </mxCell>
        <mxCell id="PwrwlJO5Dlzja9ghcnM9-38" style="edgeStyle=orthogonalEdgeStyle;rounded=0;orthogonalLoop=1;jettySize=auto;html=1;" edge="1" parent="1" source="PwrwlJO5Dlzja9ghcnM9-33" target="PwrwlJO5Dlzja9ghcnM9-31">
          <mxGeometry relative="1" as="geometry" />
        </mxCell>
        <mxCell id="PwrwlJO5Dlzja9ghcnM9-33" value="WEB HTTP" style="ellipse;shape=cloud;whiteSpace=wrap;html=1;" vertex="1" parent="1">
          <mxGeometry x="164" y="665" width="120" height="80" as="geometry" />
        </mxCell>
        <mxCell id="PwrwlJO5Dlzja9ghcnM9-37" style="edgeStyle=orthogonalEdgeStyle;rounded=0;orthogonalLoop=1;jettySize=auto;html=1;" edge="1" parent="1" source="PwrwlJO5Dlzja9ghcnM9-35" target="PwrwlJO5Dlzja9ghcnM9-31">
          <mxGeometry relative="1" as="geometry" />
        </mxCell>
        <mxCell id="PwrwlJO5Dlzja9ghcnM9-35" value="Mobil Device&lt;br&gt;Applicaions&lt;br&gt;" style="rounded=0;whiteSpace=wrap;html=1;" vertex="1" parent="1">
          <mxGeometry x="564" y="630" width="80" height="150" as="geometry" />
        </mxCell>
        <mxCell id="PwrwlJO5Dlzja9ghcnM9-40" style="edgeStyle=orthogonalEdgeStyle;rounded=0;orthogonalLoop=1;jettySize=auto;html=1;" edge="1" parent="1" source="PwrwlJO5Dlzja9ghcnM9-39" target="PwrwlJO5Dlzja9ghcnM9-12">
          <mxGeometry relative="1" as="geometry" />
        </mxCell>
        <mxCell id="PwrwlJO5Dlzja9ghcnM9-39" value="Post-BILLING&lt;br&gt;RegularPays" style="whiteSpace=wrap;html=1;aspect=fixed;" vertex="1" parent="1">
          <mxGeometry x="64" y="445" width="80" height="80" as="geometry" />
        </mxCell>
        <mxCell id="PwrwlJO5Dlzja9ghcnM9-42" style="edgeStyle=orthogonalEdgeStyle;rounded=0;orthogonalLoop=1;jettySize=auto;html=1;entryX=1;entryY=0.5;entryDx=0;entryDy=0;entryPerimeter=0;" edge="1" parent="1" source="PwrwlJO5Dlzja9ghcnM9-41" target="PwrwlJO5Dlzja9ghcnM9-12">
          <mxGeometry relative="1" as="geometry" />
        </mxCell>
        <mxCell id="PwrwlJO5Dlzja9ghcnM9-41" value="IMPORT&lt;br&gt;consumer db&lt;br&gt;EXPORT" style="whiteSpace=wrap;html=1;aspect=fixed;" vertex="1" parent="1">
          <mxGeometry x="684" y="445" width="80" height="80" as="geometry" />
        </mxCell>
      </root>
    </mxGraphModel>
  </diagram>
</mxfile>
